<svg width="1237" height="1163" viewBox="0 0 1237 1163" fill="none" xmlns="http://www.w3.org/2000/svg">
<path fill-rule="evenodd" clip-rule="evenodd" d="M672.454 260.205C813.733 266.497 880.56 19.1868 1021.2 34.0474C1141.96 46.8081 1252.46 199.475 1235.22 319.67C1214.97 460.758 950.128 472.806 937.869 614.81C924.315 771.804 1249.52 873.36 1175.41 1012.43C1109.59 1135.95 910.604 891.962 773.975 922.37C653.039 949.285 623.847 1172.84 500.371 1162.66C387.437 1153.35 397.599 964.265 316.935 884.685C225.364 794.346 35.1203 797.539 3.81131 672.781C-26.5386 551.843 132.794 467.288 183.612 353.425C235.075 238.117 179.113 25.7208 303.158 2.06588C453.744 -26.6503 519.306 253.383 672.454 260.205Z" fill="#D54BD6" fill-opacity="0.3"/>
</svg>
