<?xml version="1.0" encoding="UTF-8"?>
<!DOCTYPE svg PUBLIC "-//W3C//DTD SVG 1.1//EN" "http://www.w3.org/Graphics/SVG/1.1/DTD/svg11.dtd">
<svg xmlns="http://www.w3.org/2000/svg" version="1.1" width="1000px" height="1000px" style="shape-rendering:geometricPrecision; text-rendering:geometricPrecision; image-rendering:optimizeQuality; fill-rule:evenodd; clip-rule:evenodd" xmlns:xlink="http://www.w3.org/1999/xlink">
<g><path style="opacity:1" fill="#000000" d="M -0.5,-0.5 C 82.8333,-0.5 166.167,-0.5 249.5,-0.5C 249.5,82.8333 249.5,166.167 249.5,249.5C 166.167,249.5 82.8333,249.5 -0.5,249.5C -0.5,166.167 -0.5,82.8333 -0.5,-0.5 Z"/></g>
<g><path style="opacity:1" fill="#fefffe" d="M 249.5,-0.5 C 332.833,-0.5 416.167,-0.5 499.5,-0.5C 499.5,82.8333 499.5,166.167 499.5,249.5C 416.167,249.5 332.833,249.5 249.5,249.5C 249.5,166.167 249.5,82.8333 249.5,-0.5 Z"/></g>
<g><path style="opacity:1" fill="#000000" d="M 499.5,-0.5 C 582.833,-0.5 666.167,-0.5 749.5,-0.5C 749.5,82.8333 749.5,166.167 749.5,249.5C 666.167,249.5 582.833,249.5 499.5,249.5C 499.5,166.167 499.5,82.8333 499.5,-0.5 Z"/></g>
<g><path style="opacity:1" fill="#fefffe" d="M 749.5,-0.5 C 832.833,-0.5 916.167,-0.5 999.5,-0.5C 999.5,82.8333 999.5,166.167 999.5,249.5C 916.167,249.5 832.833,249.5 749.5,249.5C 749.5,166.167 749.5,82.8333 749.5,-0.5 Z"/></g>
<g><path style="opacity:1" fill="#fefffe" d="M -0.5,249.5 C 82.8333,249.5 166.167,249.5 249.5,249.5C 249.5,332.833 249.5,416.167 249.5,499.5C 166.167,499.5 82.8333,499.5 -0.5,499.5C -0.5,416.167 -0.5,332.833 -0.5,249.5 Z"/></g>
<g><path style="opacity:1" fill="#000000" d="M 249.5,249.5 C 332.833,249.5 416.167,249.5 499.5,249.5C 499.5,332.833 499.5,416.167 499.5,499.5C 416.167,499.5 332.833,499.5 249.5,499.5C 249.5,416.167 249.5,332.833 249.5,249.5 Z"/></g>
<g><path style="opacity:1" fill="#fefffe" d="M 499.5,249.5 C 582.833,249.5 666.167,249.5 749.5,249.5C 749.5,332.833 749.5,416.167 749.5,499.5C 666.167,499.5 582.833,499.5 499.5,499.5C 499.5,416.167 499.5,332.833 499.5,249.5 Z"/></g>
<g><path style="opacity:1" fill="#000000" d="M 749.5,249.5 C 832.833,249.5 916.167,249.5 999.5,249.5C 999.5,332.833 999.5,416.167 999.5,499.5C 916.167,499.5 832.833,499.5 749.5,499.5C 749.5,416.167 749.5,332.833 749.5,249.5 Z"/></g>
<g><path style="opacity:1" fill="#000000" d="M -0.5,499.5 C 82.8333,499.5 166.167,499.5 249.5,499.5C 249.5,582.833 249.5,666.167 249.5,749.5C 166.167,749.5 82.8333,749.5 -0.5,749.5C -0.5,666.167 -0.5,582.833 -0.5,499.5 Z"/></g>
<g><path style="opacity:1" fill="#fefffe" d="M 249.5,499.5 C 332.833,499.5 416.167,499.5 499.5,499.5C 499.5,582.833 499.5,666.167 499.5,749.5C 416.167,749.5 332.833,749.5 249.5,749.5C 249.5,666.167 249.5,582.833 249.5,499.5 Z"/></g>
<g><path style="opacity:1" fill="#000000" d="M 499.5,499.5 C 582.833,499.5 666.167,499.5 749.5,499.5C 749.5,582.833 749.5,666.167 749.5,749.5C 666.167,749.5 582.833,749.5 499.5,749.5C 499.5,666.167 499.5,582.833 499.5,499.5 Z"/></g>
<g><path style="opacity:1" fill="#fefffe" d="M 749.5,499.5 C 832.833,499.5 916.167,499.5 999.5,499.5C 999.5,582.833 999.5,666.167 999.5,749.5C 916.167,749.5 832.833,749.5 749.5,749.5C 749.5,666.167 749.5,582.833 749.5,499.5 Z"/></g>
<g><path style="opacity:1" fill="#fefffe" d="M -0.5,749.5 C 82.8333,749.5 166.167,749.5 249.5,749.5C 249.5,832.833 249.5,916.167 249.5,999.5C 166.167,999.5 82.8333,999.5 -0.5,999.5C -0.5,916.167 -0.5,832.833 -0.5,749.5 Z"/></g>
<g><path style="opacity:1" fill="#000000" d="M 249.5,749.5 C 332.833,749.5 416.167,749.5 499.5,749.5C 499.5,832.833 499.5,916.167 499.5,999.5C 416.167,999.5 332.833,999.5 249.5,999.5C 249.5,916.167 249.5,832.833 249.5,749.5 Z"/></g>
<g><path style="opacity:1" fill="#fefffe" d="M 499.5,749.5 C 582.833,749.5 666.167,749.5 749.5,749.5C 749.5,832.833 749.5,916.167 749.5,999.5C 666.167,999.5 582.833,999.5 499.5,999.5C 499.5,916.167 499.5,832.833 499.5,749.5 Z"/></g>
<g><path style="opacity:1" fill="#000000" d="M 749.5,749.5 C 832.833,749.5 916.167,749.5 999.5,749.5C 999.5,832.833 999.5,916.167 999.5,999.5C 916.167,999.5 832.833,999.5 749.5,999.5C 749.5,916.167 749.5,832.833 749.5,749.5 Z"/></g>
</svg>
