<svg width="120" height="170" viewBox="0 0 59 84" fill="none" xmlns="http://www.w3.org/2000/svg">
<g filter="url(#filter0_i_115_239)">
<path d="M17.9356 56.7312V54.8392C17.9356 50.5032 18.2772 47.0476 18.9605 44.4723C19.6437 41.8971 20.6554 39.8342 21.9956 38.2838C23.3358 36.7071 24.9782 35.288 26.9228 34.0267C28.6046 32.923 30.1025 31.8587 31.4164 30.8338C32.7566 29.809 33.8078 28.7184 34.5698 27.5622C35.3582 26.4059 35.7524 25.092 35.7524 23.6204C35.7524 22.3065 35.437 21.1503 34.8064 20.1517C34.1757 19.1531 33.3216 18.3779 32.2442 17.826C31.1668 17.2742 29.9711 16.9983 28.6572 16.9983C27.2382 16.9983 25.9243 17.3267 24.7154 17.9837C23.5329 18.6407 22.5738 19.5473 21.838 20.7035C21.1284 21.8598 20.7737 23.2 20.7737 24.7241H0.591864C0.64442 18.9429 1.95834 14.2522 4.53363 10.652C7.10891 7.02561 10.5251 4.37149 14.7822 2.68967C19.0393 0.981575 23.7169 0.127527 28.8149 0.127527C34.4385 0.127527 39.4576 0.955298 43.8724 2.61084C48.2872 4.2401 51.7691 6.71027 54.3181 10.0213C56.8671 13.3062 58.1416 17.4187 58.1416 22.3591C58.1416 25.5388 57.5897 28.3374 56.486 30.755C55.4086 33.1464 53.8976 35.2618 51.953 37.1012C50.0347 38.9145 47.7879 40.57 45.2126 42.0679C43.3206 43.1716 41.7307 44.3147 40.4431 45.4972C39.1554 46.6535 38.1831 47.9805 37.5262 49.4784C36.8692 50.95 36.5407 52.7369 36.5407 54.8392V56.7312H17.9356ZM27.5535 83.2199C24.5052 83.2199 21.8905 82.1556 19.7094 80.027C17.5546 77.8722 16.4903 75.2575 16.5166 72.1829C16.4903 69.1872 17.5546 66.625 19.7094 64.4965C21.8905 62.3679 24.5052 61.3037 27.5535 61.3037C30.4441 61.3037 32.9931 62.3679 35.2005 64.4965C37.4342 66.625 38.5642 69.1872 38.5904 72.1829C38.5642 74.2326 38.0255 76.0984 36.9743 77.7802C35.9495 79.4358 34.6093 80.7628 32.9537 81.7614C31.2982 82.7337 29.4981 83.2199 27.5535 83.2199Z" fill="#DC4DDD"/>
</g>
<defs>
<filter id="filter0_i_115_239" x="0.591797" y="0.127441" width="63.7165" height="89.259" filterUnits="userSpaceOnUse" color-interpolation-filters="sRGB">
<feFlood flood-opacity="0" result="BackgroundImageFix"/>
<feBlend mode="normal" in="SourceGraphic" in2="BackgroundImageFix" result="shape"/>
<feColorMatrix in="SourceAlpha" type="matrix" values="0 0 0 0 0 0 0 0 0 0 0 0 0 0 0 0 0 0 127 0" result="hardAlpha"/>
<feOffset dx="6.16667" dy="6.16667"/>
<feGaussianBlur stdDeviation="7.70833"/>
<feComposite in2="hardAlpha" operator="arithmetic" k2="-1" k3="1"/>
<feColorMatrix type="matrix" values="0 0 0 0 0.576471 0 0 0 0 0.356863 0 0 0 0 0.866667 0 0 0 1 0"/>
<feBlend mode="normal" in2="shape" result="effect1_innerShadow_115_239"/>
</filter>
</defs>
</svg>
