<svg width="437" height="1063" viewBox="0 0 437 1063" fill="none" xmlns="http://www.w3.org/2000/svg">
<g filter="url(#filter0_d_112_35)">
<path d="M796.636 922.982C739.794 1130.7 547.165 1041.03 447.918 909.261C387.799 836.113 286.358 892.543 211.921 801.862C137.484 711.181 315.505 670.191 203.375 528.459C91.2444 386.726 309.778 179.76 438.331 252.128C566.885 324.497 556.869 261.942 740.547 241.369C924.225 220.796 1058.99 480.649 922.479 589.69C785.971 698.732 858.168 698.122 796.636 922.982Z" stroke="#FDEF6D" stroke-opacity="0.15" stroke-width="5"/>
<path d="M606.061 622.057C601.635 642.427 558.829 654.135 544.443 629.771C531.27 607.46 507.087 602.895 496.781 590.319C469.647 557.21 486.326 558.096 479.726 533.973C471.695 504.619 490.967 451.657 534.235 477.32C569.821 498.426 569.466 474.757 600.673 482.873C631.881 490.988 654.338 522 633.9 556.459C626.225 569.399 613.431 588.129 606.061 622.057Z" stroke="#FDEF6D" stroke-opacity="0.15" stroke-width="5"/>
<path d="M778.8 896.494C726.724 1087.18 547.715 1006.72 456.182 884.722C400.332 816.195 305.914 867.08 237.307 783.5C167.17 698.053 330.524 660.87 227.987 529.829C125.321 398.313 325.74 205.347 446.54 273.469C566.642 341.178 557.504 282.158 727.321 264.193C897.138 246.228 1021.69 485.277 895.734 587.538C770.938 687.843 835.409 688.992 778.8 896.494Z" stroke="#FDEF6D" stroke-opacity="0.15" stroke-width="5"/>
<path d="M760.964 870.008C713.652 1043.66 548.263 972.422 464.446 860.185C412.863 796.28 325.468 841.62 262.691 765.14C196.855 684.926 345.542 651.55 252.599 531.201C159.395 409.902 341.7 230.936 454.747 294.812C566.397 357.86 558.138 302.376 714.094 287.019C870.05 271.662 984.392 489.907 868.988 585.388C755.904 676.957 812.648 679.864 760.964 870.008Z" stroke="#FDEF6D" stroke-opacity="0.15" stroke-width="5"/>
<path d="M743.128 843.518C700.582 1000.14 548.813 938.117 472.71 835.644C425.395 776.36 345.024 816.155 288.077 746.775C226.541 671.796 360.56 642.227 277.211 532.57C193.471 421.486 357.661 256.52 462.954 316.151C566.153 374.539 558.772 322.59 700.867 309.841C842.962 297.092 947.095 494.533 842.243 583.234C740.871 666.066 789.889 670.731 743.128 843.518Z" stroke="#FDEF6D" stroke-opacity="0.15" stroke-width="5"/>
<path d="M725.291 817.031C687.51 956.623 549.362 903.815 480.973 811.105C437.926 756.443 364.579 790.693 313.462 728.413C256.226 658.668 375.577 632.905 301.822 533.94C227.546 433.073 373.621 282.108 471.161 337.492C565.908 391.22 559.406 342.806 687.64 332.665C815.874 322.524 909.797 499.162 815.497 581.082C725.837 655.178 767.128 661.601 725.291 817.031Z" stroke="#FDEF6D" stroke-opacity="0.15" stroke-width="5"/>
<path d="M707.811 789.943C674.795 912.504 550.267 868.912 489.593 785.966C450.813 735.925 384.489 764.63 339.203 709.451C286.267 644.94 390.951 622.984 326.789 534.711C261.976 444.06 389.937 307.095 479.724 358.234C566.019 407.301 560.395 362.422 674.768 354.889C789.141 347.357 872.855 503.191 789.107 578.331C711.159 643.69 744.724 651.871 707.811 789.943Z" stroke="#FDEF6D" stroke-opacity="0.15" stroke-width="5"/>
<path d="M690.746 762.151C662.495 867.68 551.587 833.305 498.628 760.123C464.116 714.704 404.815 737.864 365.359 689.785C316.724 630.508 406.74 612.359 352.172 534.777C296.823 454.342 406.668 331.378 488.702 378.27C566.546 422.678 561.8 381.334 662.312 376.409C762.825 371.484 836.329 506.515 763.132 574.875C696.897 631.498 722.735 641.437 690.746 762.151Z" stroke="#FDEF6D" stroke-opacity="0.15" stroke-width="5"/>
<path d="M673.704 734.322C650.218 822.819 552.931 797.66 507.686 734.242C477.442 693.444 425.165 711.059 391.539 670.081C347.204 616.037 422.553 601.696 377.578 534.806C331.693 464.587 423.424 355.623 497.705 398.27C567.097 438.017 563.229 400.208 649.88 397.891C736.531 395.574 799.826 509.801 737.181 571.381C682.658 619.267 700.77 630.964 673.704 734.322Z" stroke="#FDEF6D" stroke-opacity="0.15" stroke-width="5"/>
<path d="M656.695 706.433C637.974 777.899 554.307 761.957 516.777 708.302C490.801 672.126 445.548 684.196 417.751 650.319C377.717 601.509 438.398 590.974 403.017 534.776C366.595 474.773 440.211 379.809 506.739 418.21C567.68 453.297 564.69 419.023 637.48 419.314C710.271 419.606 763.356 513.029 711.263 567.828C668.451 606.978 678.837 620.434 656.695 706.433Z" stroke="#FDEF6D" stroke-opacity="0.15" stroke-width="5"/>
<path d="M639.735 678.46C625.779 732.893 555.732 726.168 525.917 682.277C504.208 650.722 465.978 657.247 444.012 630.47C408.278 586.894 454.292 580.166 428.504 534.66C401.546 484.873 457.048 403.91 515.822 438.065C568.311 468.492 566.2 437.753 625.129 440.652C684.059 443.551 726.934 516.171 685.393 564.19C654.294 594.604 656.953 609.817 639.735 678.46Z" stroke="#FDEF6D" stroke-opacity="0.15" stroke-width="5"/>
<path d="M622.844 650.36C613.654 687.763 557.227 690.254 535.126 656.126C517.685 629.194 486.479 630.173 470.343 610.497C438.909 572.155 470.255 569.233 454.062 534.419C436.567 494.848 473.954 427.886 524.975 457.795C569.012 483.561 567.779 456.357 612.848 461.865C657.916 467.372 690.582 519.188 659.593 560.427C640.205 582.104 635.138 599.076 622.844 650.36Z" stroke="#FDEF6D" stroke-opacity="0.15" stroke-width="5"/>
</g>
<defs>
<filter id="filter0_d_112_35" x="156.867" y="221.71" width="840.867" height="844.065" filterUnits="userSpaceOnUse" color-interpolation-filters="sRGB">
<feFlood flood-opacity="0" result="BackgroundImageFix"/>
<feColorMatrix in="SourceAlpha" type="matrix" values="0 0 0 0 0 0 0 0 0 0 0 0 0 0 0 0 0 0 127 0" result="hardAlpha"/>
<feOffset dx="2" dy="2"/>
<feGaussianBlur stdDeviation="7.5"/>
<feComposite in2="hardAlpha" operator="out"/>
<feColorMatrix type="matrix" values="0 0 0 0 0.863721 0 0 0 0 0.301167 0 0 0 0 0.866667 0 0 0 1 0"/>
<feBlend mode="normal" in2="BackgroundImageFix" result="effect1_dropShadow_112_35"/>
<feBlend mode="normal" in="SourceGraphic" in2="effect1_dropShadow_112_35" result="shape"/>
</filter>
</defs>
</svg>
